Year: 2012
Country: USA
Genre: Gonzo, Anal, Big Booty.
Duration: 1:23:08 +01:20:53.
Language: English.
Studio: Assence Films

Starring: CHERRIE ROSE
          ERIKA MARTINELLI
          DILLAN LAUREN
          BROOKE HAVEN
          HARMONY

--=[Detalhes do vídeo]=--
Format                         : AVI
Format/Info                    : Audio Video Interleave
File size                      : 701 MiB
Duration                       : 1h 23mn
Overall bit rate mode          : Variable
Overall bit rate               : 1 179 Kbps
Writing application            : VirtualDubMod 1.5.10.2 (build 2540/release)
Writing library                : VirtualDubMod build 2540/release

Video
ID                             : 0
Format                         : MPEG-4 Visual
Format profile                 : Advanced Simple@L5
Format settings, BVOP          : No
Format settings, QPel          : No
Format settings, GMC           : No warppoints
Format settings, Matrix        : Default (H.263)
Codec ID                       : XVID
Codec ID/Hint                  : XviD
Duration                       : 1h 23mn
Bit rate                       : 1 049 Kbps
Width                          : 512 pixels
Height                         : 384 pixels
Display aspect ratio           : 4:3
Frame rate                     : 29.970 fps
Color space                    : YUV
Chroma subsampling             : 4:2:0
Bit depth                      : 8 bits
Scan type                      : Progressive
Compression mode               : Lossy
Bits/(Pixel*Frame)             : 0.178
Stream size                    : 624 MiB (89%)
Writing library                : XviD 1.2.1 (UTC 2008-12-04)

Audio
ID                             : 1
Format                         : MPEG Audio
Format version                 : Version 1
Format profile                 : Layer 3
Mode                           : Joint stereo
Codec ID                       : 55
Codec ID/Hint                  : MP3
Duration                       : 1h 23mn
Bit rate mode                  : Variable
Bit rate                       : 117 Kbps
Nominal bit rate               : 128 Kbps
Channel(s)                     : 2 channels
Sampling rate                  : 48.0 KHz
Compression mode               : Lossy
Stream size                    : 68.9 MiB (10%)
Alignment                      : Aligned on interleaves
Interleave, duration           : 24 ms (0.72 video frame)
Interleave, preload duration   : 573 ms
Writing library                : LAME3.98r
Encoding settings              : -m j -V 4 -q 2 -lowpass 17 --abr 128

SCREENS 
http://imageshack.us/a/img233/4793/analartists3cd10302203.jpg 
http://imageshack.us/a/img805/5046/analartists3cd10305110.jpg 
http://imageshack.us/a/img515/9135/analartists3cd10593104.jpg 
http://imageshack.us/a/img443/3875/analartists3cd11182609.jpg 
http://imageshack.us/a/img827/9105/analartists3cd21002607.jpg 
http://imageshack.us/a/img715/9790/analartists3cd20503813.jpg

Att.
Wellington Augusto
blog: w3ll1ngt0ncm no blogspotcom